<?xml version="1.0" encoding="UTF-8" standalone="no"?>
<!-- Created with Inkscape (http://www.inkscape.org/) -->

<svg
   width="32"
   height="32"
   viewBox="0 0 32 32"
   version="1.1"
   id="svg1"
   xmlns="http://www.w3.org/2000/svg"
   xmlns:svg="http://www.w3.org/2000/svg">
  <defs
     id="defs1" />
  <g
     id="layer7"
     style="display:inline">
    <circle
       style="fill:#ffffff;fill-opacity:1;stroke:none;stroke-width:2;stroke-linecap:round;stroke-dasharray:none;stroke-opacity:1"
       id="path2"
       cx="16"
       cy="16"
       r="16" />
  </g>
  <g
     id="layer1">
    <path
       style="color:#000000;fill:#b30838;stroke-linecap:round;-inkscape-stroke:none"
       d="m 11,12.417969 a 1,1 0 0 0 -1,1 1,1 0 0 0 1,1 h 10 a 1,1 0 0 0 1,-1 1,1 0 0 0 -1,-1 z"
       id="path1" />
    <path
       style="color:#000000;fill:#007396;stroke-linecap:round;-inkscape-stroke:none"
       d="m 14.634766,1.3222656 a 1,1 0 0 0 -0.550782,0.5292969 l -4,9.1660155 a 1,1 0 0 0 0.515625,1.316406 1,1 0 0 0 1.316407,-0.515625 l 4,-9.1660152 A 1,1 0 0 0 15.400391,1.3359375 1,1 0 0 0 14.634766,1.3222656 Z"
       id="path1-4" />
    <path
       style="color:#000000;fill:#ed8b00;stroke-linecap:round;-inkscape-stroke:none"
       d="m 17.365234,1.3222656 a 1,1 0 0 0 -0.765625,0.013672 1,1 0 0 0 -0.515625,1.3164063 l 4,9.1660152 a 1,1 0 0 0 1.316407,0.515625 1,1 0 0 0 0.515625,-1.316406 l -4,-9.1660155 A 1,1 0 0 0 17.365234,1.3222656 Z"
       id="path1-4-4" />
    <path
       style="color:#000000;fill:#007396;stroke-linecap:round;-inkscape-stroke:none"
       d="m 8.6347656,14.486328 a 1,1 0 0 0 -0.5507812,0.53125 l -4,9.164063 A 1,1 0 0 0 4.5996094,25.5 1,1 0 0 0 5.9160156,24.982422 l 4,-9.164063 A 1,1 0 0 0 9.4003906,14.5 1,1 0 0 0 8.6347656,14.486328 Z"
       id="path1-4-3" />
    <path
       style="color:#000000;fill:#ed8b00;stroke-linecap:round;-inkscape-stroke:none"
       d="M 11.365234,14.486328 A 1,1 0 0 0 10.599609,14.5 1,1 0 0 0 10.083984,15.818359 l 4,9.164063 A 1,1 0 0 0 15.400391,25.5 1,1 0 0 0 15.916016,24.181641 l -4,-9.164063 a 1,1 0 0 0 -0.550782,-0.53125 z"
       id="path1-4-4-0" />
    <path
       style="color:#000000;fill:#007396;stroke-linecap:round;-inkscape-stroke:none"
       d="m 20.634766,14.486328 a 1,1 0 0 0 -0.550782,0.53125 l -4,9.164063 A 1,1 0 0 0 16.599609,25.5 1,1 0 0 0 17.916016,24.982422 l 4,-9.164063 A 1,1 0 0 0 21.400391,14.5 1,1 0 0 0 20.634766,14.486328 Z"
       id="path1-4-8" />
    <path
       style="color:#000000;fill:#ed8b00;stroke-linecap:round;-inkscape-stroke:none"
       d="M 23.365234,14.486328 A 1,1 0 0 0 22.599609,14.5 1,1 0 0 0 22.083984,15.818359 l 4,9.164063 A 1,1 0 0 0 27.400391,25.5 1,1 0 0 0 27.916016,24.181641 l -4,-9.164063 a 1,1 0 0 0 -0.550782,-0.53125 z"
       id="path1-4-4-8" />
  </g>
</svg>
